<?xml version="1.0" encoding="UTF-8" standalone="no"?>
<!-- Created with Inkscape (http://www.inkscape.org/) -->

<svg
   xmlns:dc="http://purl.org/dc/elements/1.1/"
   xmlns:cc="http://creativecommons.org/ns#"
   xmlns:rdf="http://www.w3.org/1999/02/22-rdf-syntax-ns#"
   xmlns:svg="http://www.w3.org/2000/svg"
   xmlns="http://www.w3.org/2000/svg"
   xmlns:sodipodi="http://sodipodi.sourceforge.net/DTD/sodipodi-0.dtd"
   xmlns:inkscape="http://www.inkscape.org/namespaces/inkscape"
   version="1.1"
   id="svg2"
   xml:space="preserve"
   width="553.33331"
   height="506.66666"
   viewBox="0 0 553.33331 506.66666"
   sodipodi:docname="SPHInterpolationColorsVerbose.svg"
   inkscape:version="0.92.2 2405546, 2018-03-11"><metadata
     id="metadata8"><rdf:RDF><cc:Work
         rdf:about=""><dc:format>image/svg+xml</dc:format><dc:type
           rdf:resource="http://purl.org/dc/dcmitype/StillImage" /><dc:title></dc:title></cc:Work></rdf:RDF></metadata><defs
     id="defs6"><clipPath
       clipPathUnits="userSpaceOnUse"
       id="clipPath24"><path
         d="m 4136.72,1202.18 c 0,-538.168 -890.59,-974.418 -1989.18,-974.418 -1098.63,0 -1989.22,436.25 -1989.22,974.418 0,538.16 890.59,974.45 1989.22,974.45 1098.59,0 1989.18,-436.29 1989.18,-974.45 z"
         id="path22"
         inkscape:connector-curvature="0" /></clipPath><radialGradient
       fx="270.15799"
       fy="992.323"
       cx="270.15799"
       cy="992.323"
       r="195.5"
       gradientUnits="userSpaceOnUse"
       gradientTransform="matrix(13.3578,4.38436,1.56704,-4.77428,-4333.44,5046.26)"
       spreadMethod="pad"
       id="radialGradient30"><stop
         style="stop-opacity:1;stop-color:#ffffff"
         offset="0"
         id="stop26" /><stop
         style="stop-opacity:1;stop-color:#000000"
         offset="1"
         id="stop28" /></radialGradient><clipPath
       clipPathUnits="userSpaceOnUse"
       id="clipPath44"><path
         d="m 199.609,1400.03 c -26.91,-63.95 -41.25,-129.96 -41.25,-197.78 0,-538.16 890.621,-974.488 1989.261,-974.488 946.99,0 1739.29,324.066 1940,758.238 z"
         id="path42"
         inkscape:connector-curvature="0" /></clipPath><radialGradient
       fx="399.28601"
       fy="1050.22"
       cx="399.28601"
       cy="1050.22"
       r="195.5"
       gradientUnits="userSpaceOnUse"
       gradientTransform="matrix(10.2011,0,0,-5.02487,-1925.61,6479.4)"
       spreadMethod="pad"
       id="radialGradient52"><stop
         style="stop-opacity:1;stop-color:#ff0000"
         offset="0"
         id="stop46" /><stop
         style="stop-opacity:1;stop-color:#ffc4c4"
         offset="0.5"
         id="stop48" /><stop
         style="stop-opacity:1;stop-color:#ffffff"
         offset="1"
         id="stop50" /></radialGradient><clipPath
       clipPathUnits="userSpaceOnUse"
       id="clipPath70"><path
         d="m 4084.1,988 c 34.38,70.66 52.5,144.37 52.5,220 0,276.99 -243.51,526.75 -633.79,703.08 m 0,0 c -268.55,117.15 -543.86,728.25 -543.86,728.25 0,0 -374.26,1018.55 -842.86,1080 V 1205.03 L 4084.1,988"
         id="path68"
         inkscape:connector-curvature="0" /></clipPath><radialGradient
       fx="444.138"
       fy="291.71701"
       cx="444.138"
       cy="291.71701"
       r="126.781"
       gradientUnits="userSpaceOnUse"
       gradientTransform="matrix(11.786,-12.9807,-7.99828,-7.26215,-432.198,11054.5)"
       spreadMethod="pad"
       id="radialGradient76"><stop
         style="stop-opacity:1;stop-color:#ffffff"
         offset="0"
         id="stop72" /><stop
         style="stop-opacity:1;stop-color:#000000"
         offset="1"
         id="stop74" /></radialGradient><clipPath
       clipPathUnits="userSpaceOnUse"
       id="clipPath88"><path
         d="M 2099.61,3720.03 C 1751.84,3717.02 1435.43,2572.45 1224.61,2233.5 892.5,1699.56 527.621,1364.99 207.621,1399.25 L 2116.09,1205.03 4076.09,988 c -394.29,37.15 -918.63,924.14 -1081.48,1297.03 -290.82,665.78 -489.92,1397.07 -878.52,1434.22 -5.54,0.54 -10.97,0.82 -16.48,0.78 z"
         id="path86"
         inkscape:connector-curvature="0" /></clipPath><linearGradient
       x1="160.938"
       y1="367.31201"
       x2="645.5"
       y2="367.31201"
       gradientUnits="userSpaceOnUse"
       gradientTransform="matrix(8,0,0,-8,-1083.9,5292.51)"
       spreadMethod="pad"
       id="linearGradient100"><stop
         style="stop-opacity:1;stop-color:#ffffff"
         offset="0"
         id="stop90" /><stop
         style="stop-opacity:1;stop-color:#ffc4c4"
         offset="0.25"
         id="stop92" /><stop
         style="stop-opacity:1;stop-color:#ff0000"
         offset="0.5"
         id="stop94" /><stop
         style="stop-opacity:1;stop-color:#ffc4c4"
         offset="0.75"
         id="stop96" /><stop
         style="stop-opacity:1;stop-color:#ffffff"
         offset="1"
         id="stop98" /></linearGradient></defs><sodipodi:namedview
     pagecolor="#ffffff"
     bordercolor="#666666"
     borderopacity="1"
     objecttolerance="10"
     gridtolerance="10"
     guidetolerance="10"
     inkscape:pageopacity="0"
     inkscape:pageshadow="2"
     inkscape:window-width="1366"
     inkscape:window-height="694"
     id="namedview4"
     showgrid="false"
     inkscape:zoom="0.6587258"
     inkscape:cx="323.26533"
     inkscape:cy="222.40108"
     inkscape:window-x="0"
     inkscape:window-y="0"
     inkscape:window-maximized="1"
     inkscape:current-layer="g10" /><g
     id="g10"
     inkscape:groupmode="layer"
     inkscape:label="ink_ext_XXXXXX"
     transform="matrix(1.3333333,0,0,-1.3333333,0,506.66667)"><path
   inkscape:connector-curvature="0"
   id="path14"
   style="fill:#0000ff;fill-opacity:1;fill-rule:evenodd;stroke:none;stroke-width:0.1"
   d="m 111.246,203.823 c 0,-3.156 -5.375,-5.715 -11.9999,-5.715 -6.6289,0 -12,2.559 -12,5.715 0,3.156 5.3711,5.715 12,5.715 6.6249,0 11.9999,-2.559 11.9999,-5.715" /><path
   inkscape:connector-curvature="0"
   id="path16"
   style="fill:none;stroke:#000000;stroke-width:0.80000001;stroke-linecap:butt;stroke-linejoin:miter;stroke-miterlimit:4;stroke-dasharray:none;stroke-opacity:1"
   d="m 111.246,203.823 c 0,-3.156 -5.375,-5.715 -11.9999,-5.715 -6.6289,0 -12,2.559 -12,5.715 0,3.156 5.3711,5.715 12,5.715 6.6249,0 11.9999,-2.559 11.9999,-5.715 z" /><g
   id="g18"
   transform="scale(0.1)"><g
     clip-path="url(#clipPath24)"
     id="g20"><path
       inkscape:connector-curvature="0"
       id="path32"
       style="fill:url(#radialGradient30);fill-opacity:1;fill-rule:nonzero;stroke:none"
       d="m 4136.72,1202.18 c 0,-538.168 -890.59,-974.418 -1989.18,-974.418 -1098.63,0 -1989.22,436.25 -1989.22,974.418 0,538.16 890.59,974.45 1989.22,974.45 1098.59,0 1989.18,-436.29 1989.18,-974.45" /></g></g><g
   transform="scale(0.0782773,-0.121723)"
   id="g34"><path
     inkscape:connector-curvature="0"
     id="path36"
     style="fill:none;stroke:#000000;stroke-width:13.03190041;stroke-linecap:butt;stroke-linejoin:miter;stroke-miterlimit:4;stroke-dasharray:none;stroke-opacity:1"
     d="m 5284.69,-987.632 c 0,442.12 -1137.72,800.517 -2541.19,800.517 -1403.51,0 -2541.244,-358.397 -2541.244,-800.517 0,-442.128 1137.734,-800.558 2541.244,-800.558 1403.47,0 2541.19,358.43 2541.19,800.558 z" /></g><g
   id="g38"
   transform="scale(0.1)"><g
     clip-path="url(#clipPath44)"
     id="g40"><path
       inkscape:connector-curvature="0"
       id="path54"
       style="fill:url(#radialGradient52);fill-opacity:1;fill-rule:nonzero;stroke:none"
       d="m 199.609,1400.03 c -26.91,-63.95 -41.25,-129.96 -41.25,-197.78 0,-538.16 890.621,-974.488 1989.261,-974.488 946.99,0 1739.29,324.066 1940,758.238" /></g></g><path
   inkscape:connector-curvature="0"
   id="path56"
   style="fill:none;stroke:#000000;stroke-width:1.27208006;stroke-linecap:butt;stroke-linejoin:miter;stroke-miterlimit:4;stroke-dasharray:none;stroke-opacity:1"
   d="m 19.9609,140.003 c -2.691,-6.395 -4.125,-12.997 -4.125,-19.778 0,-53.8156 89.0621,-97.4488 198.9261,-97.4488 94.699,0 173.929,32.4062 194,75.8242 z" /><path
   inkscape:connector-curvature="0"
   id="path58"
   style="fill:#00ff00;fill-opacity:1;fill-rule:evenodd;stroke:none;stroke-width:0.1"
   d="m 224.391,120.839 c 0,-3.156 -5.375,-5.715 -12,-5.715 -6.629,0 -12,2.559 -12,5.715 0,3.156 5.371,5.715 12,5.715 6.625,0 12,-2.559 12,-5.715" /><path
   inkscape:connector-curvature="0"
   id="path60"
   style="fill:none;stroke:#000000;stroke-width:0.80000001;stroke-linecap:butt;stroke-linejoin:miter;stroke-miterlimit:4;stroke-dasharray:none;stroke-opacity:1"
   d="m 224.391,120.839 c 0,-3.157 -5.375,-5.715 -12,-5.715 -6.629,0 -12,2.558 -12,5.715 0,3.156 5.371,5.714 12,5.714 6.625,0 12,-2.558 12,-5.714 z" /><path
   inkscape:connector-curvature="0"
   id="path62"
   style="fill:none;stroke:#000000;stroke-width:0.80000001;stroke-linecap:butt;stroke-linejoin:miter;stroke-miterlimit:4;stroke-dasharray:none;stroke-opacity:1"
   d="m 211.609,120.503 v 251.429 c 38.86,-3.715 58.778,-76.847 87.86,-143.429 16.285,-37.286 68.711,-126 108.14,-129.7147 z" /><g
   id="g64"
   transform="scale(0.1)"><g
     clip-path="url(#clipPath70)"
     id="g66"><path
       inkscape:connector-curvature="0"
       id="path78"
       style="fill:url(#radialGradient76);fill-opacity:1;fill-rule:nonzero;stroke:none"
       d="m 4084.1,988 c 34.38,70.66 52.5,144.37 52.5,220 0,276.99 -243.51,526.75 -633.79,703.08 m 0,0 c -268.55,117.15 -543.86,728.25 -543.86,728.25 0,0 -374.26,1018.55 -842.86,1080 V 1205.03 L 4084.1,988" /></g></g><path
   inkscape:connector-curvature="0"
   id="path80"
   style="fill:none;stroke:#000000;stroke-width:0.80000001;stroke-linecap:butt;stroke-linejoin:miter;stroke-miterlimit:4;stroke-dasharray:none;stroke-opacity:1"
   d="m 408.41,98.7992 c 3.438,7.0668 5.25,14.4378 5.25,21.9998 0,27.7 -24.351,52.676 -63.379,70.309 m 0,0 c -26.855,11.715 -54.386,72.824 -54.386,72.824 0,0 -37.426,101.856 -84.286,108 V 120.503 L 408.41,98.7992" /><g
   id="g82"
   transform="scale(0.1)"><g
     clip-path="url(#clipPath88)"
     id="g84"><path
       inkscape:connector-curvature="0"
       id="path102"
       style="fill:url(#linearGradient100);fill-opacity:1;fill-rule:nonzero;stroke:none"
       d="M 2099.61,3720.03 C 1751.84,3717.02 1435.43,2572.45 1224.61,2233.5 892.5,1699.56 527.621,1364.99 207.621,1399.25 L 2116.09,1205.03 4076.09,988 c -394.29,37.15 -918.63,924.14 -1081.48,1297.03 -290.82,665.78 -489.92,1397.07 -878.52,1434.22 -5.54,0.54 -10.97,0.82 -16.48,0.78" /></g></g><path
   inkscape:connector-curvature="0"
   id="path104"
   style="fill:none;stroke:#000000;stroke-width:0.80000001;stroke-linecap:butt;stroke-linejoin:miter;stroke-miterlimit:4;stroke-dasharray:none;stroke-opacity:1"
   d="M 209.961,372.003 C 175.184,371.702 143.543,257.245 122.461,223.35 89.25,169.956 52.7621,136.499 20.7621,139.924 l 190.8469,-19.421 196,-21.7038 c -39.429,3.7148 -91.863,92.4138 -108.148,129.7038 -29.082,66.578 -48.992,139.707 -87.852,143.421 -0.554,0.055 -1.097,0.082 -1.648,0.079 z" /><path
   inkscape:connector-curvature="0"
   id="path106"
   style="fill:none;stroke:#000000;stroke-width:0.80000001;stroke-linecap:butt;stroke-linejoin:miter;stroke-miterlimit:4;stroke-dasharray:none;stroke-opacity:1"
   d="M 211.609,371.932 C 176.18,375.362 143.883,257.796 122.469,223.362 89.2578,169.963 52.7539,136.503 20.7539,139.932 L 211.609,120.503 Z" /><path
   inkscape:connector-curvature="0"
   id="path108"
   style="fill:#0000ff;fill-opacity:1;fill-rule:evenodd;stroke:none;stroke-width:0.1"
   d="m 123.816,50.5539 c 0,-3.157 -5.371,-5.7148 -12,-5.7148 -6.625,0 -12,2.5578 -12,5.7148 0,3.1563 5.375,5.7141 12,5.7141 6.629,0 12,-2.5578 12,-5.7141" /><path
   inkscape:connector-curvature="0"
   id="path110"
   style="fill:none;stroke:#000000;stroke-width:0.80000001;stroke-linecap:butt;stroke-linejoin:miter;stroke-miterlimit:4;stroke-dasharray:none;stroke-opacity:1"
   d="m 123.816,50.5531 c 0,-3.1558 -5.371,-5.7136 -12,-5.7136 -6.625,0 -12,2.5578 -12,5.7136 0,3.1571 5.375,5.7153 12,5.7153 6.629,0 12,-2.5582 12,-5.7153 z" /><path
   inkscape:connector-curvature="0"
   id="path112"
   style="fill:#0000ff;fill-opacity:1;fill-rule:evenodd;stroke:none;stroke-width:0.1"
   d="m 207.816,7.12383 c 0,-3.15586 -5.371,-5.71485 -12,-5.71485 -6.625,0 -12,2.55899 -12,5.71485 0,3.15627 5.375,5.71527 12,5.71527 6.629,0 12,-2.559 12,-5.71527" /><path
   inkscape:connector-curvature="0"
   id="path114"
   style="fill:none;stroke:#000000;stroke-width:0.80000001;stroke-linecap:butt;stroke-linejoin:miter;stroke-miterlimit:4;stroke-dasharray:none;stroke-opacity:1"
   d="m 207.816,7.12422 c 0,-3.15703 -5.371,-5.71484 -12,-5.71484 -6.625,0 -12,2.55781 -12,5.71484 0,3.15628 5.375,5.71528 12,5.71528 6.629,0 12,-2.559 12,-5.71528 z" /><path
   inkscape:connector-curvature="0"
   id="path116"
   style="fill:#0000ff;fill-opacity:1;fill-rule:evenodd;stroke:none;stroke-width:0.1"
   d="m 105.531,108.839 c 0,-3.156 -5.371,-5.715 -12.0001,-5.715 -6.625,0 -12,2.559 -12,5.715 0,3.156 5.375,5.715 12,5.715 6.6291,0 12.0001,-2.559 12.0001,-5.715" /><path
   inkscape:connector-curvature="0"
   id="path118"
   style="fill:none;stroke:#000000;stroke-width:0.80000001;stroke-linecap:butt;stroke-linejoin:miter;stroke-miterlimit:4;stroke-dasharray:none;stroke-opacity:1"
   d="m 105.531,108.839 c 0,-3.157 -5.371,-5.715 -12.0001,-5.715 -6.625,0 -12,2.558 -12,5.715 0,3.156 5.375,5.714 12,5.714 6.6291,0 12.0001,-2.558 12.0001,-5.714 z" /><path
   inkscape:connector-curvature="0"
   id="path120"
   style="fill:#0000ff;fill-opacity:1;fill-rule:evenodd;stroke:none;stroke-width:0.1"
   d="m 59.2461,103.124 c 0,-3.156 -5.3711,-5.715 -12,-5.715 -6.6289,0 -12,2.559 -12,5.715 0,3.156 5.3711,5.715 12,5.715 6.6289,0 12,-2.559 12,-5.715" /><path
   inkscape:connector-curvature="0"
   id="path122"
   style="fill:none;stroke:#000000;stroke-width:0.80000001;stroke-linecap:butt;stroke-linejoin:miter;stroke-miterlimit:4;stroke-dasharray:none;stroke-opacity:1"
   d="m 59.2461,103.124 c 0,-3.1568 -5.3711,-5.7146 -12,-5.7146 -6.6289,0 -12,2.5578 -12,5.7146 0,3.156 5.3711,5.715 12,5.715 6.6289,0 12,-2.559 12,-5.715 z" /><path
   inkscape:connector-curvature="0"
   id="path124"
   style="fill:#0000ff;fill-opacity:1;fill-rule:evenodd;stroke:none;stroke-width:0.1"
   d="m 232.961,38.5539 c 0,-3.157 -5.371,-5.7148 -12,-5.7148 -6.629,0 -12,2.5578 -12,5.7148 0,3.1563 5.371,5.7141 12,5.7141 6.629,0 12,-2.5578 12,-5.7141" /><path
   inkscape:connector-curvature="0"
   id="path126"
   style="fill:none;stroke:#000000;stroke-width:0.80000001;stroke-linecap:butt;stroke-linejoin:miter;stroke-miterlimit:4;stroke-dasharray:none;stroke-opacity:1"
   d="m 232.961,38.5531 c 0,-3.1558 -5.371,-5.7136 -12,-5.7136 -6.629,0 -12,2.5578 -12,5.7136 0,3.1571 5.371,5.7153 12,5.7153 6.629,0 12,-2.5582 12,-5.7153 z" /><path
   inkscape:connector-curvature="0"
   id="path128"
   style="fill:#0000ff;fill-opacity:1;fill-rule:evenodd;stroke:none;stroke-width:0.1"
   d="m 144.961,18.5539 c 0,-3.157 -5.371,-5.7148 -12,-5.7148 -6.629,0 -12,2.5578 -12,5.7148 0,3.1563 5.371,5.7141 12,5.7141 6.629,0 12,-2.5578 12,-5.7141" /><path
   inkscape:connector-curvature="0"
   id="path130"
   style="fill:none;stroke:#000000;stroke-width:0.80000001;stroke-linecap:butt;stroke-linejoin:miter;stroke-miterlimit:4;stroke-dasharray:none;stroke-opacity:1"
   d="m 144.961,18.5531 c 0,-3.1558 -5.371,-5.7136 -12,-5.7136 -6.629,0 -12,2.5578 -12,5.7136 0,3.1571 5.371,5.7153 12,5.7153 6.629,0 12,-2.5582 12,-5.7153 z" /><path
   inkscape:connector-curvature="0"
   id="path132"
   style="fill:#0000ff;fill-opacity:1;fill-rule:evenodd;stroke:none;stroke-width:0.1"
   d="m 162.676,79.1238 c 0,-3.1558 -5.375,-5.7148 -12,-5.7148 -6.629,0 -12,2.559 -12,5.7148 0,3.1563 5.371,5.7153 12,5.7153 6.625,0 12,-2.559 12,-5.7153" /><path
   inkscape:connector-curvature="0"
   id="path134"
   style="fill:none;stroke:#000000;stroke-width:0.80000001;stroke-linecap:butt;stroke-linejoin:miter;stroke-miterlimit:4;stroke-dasharray:none;stroke-opacity:1"
   d="m 162.676,79.1242 c 0,-3.157 -5.375,-5.7148 -12,-5.7148 -6.629,0 -12,2.5578 -12,5.7148 0,3.1563 5.371,5.7153 12,5.7153 6.625,0 12,-2.559 12,-5.7153 z" /><path
   inkscape:connector-curvature="0"
   id="path136"
   style="fill:#0000ff;fill-opacity:1;fill-rule:evenodd;stroke:none;stroke-width:0.1"
   d="m 79.2461,69.409 c 0,-3.1559 -5.3711,-5.7149 -12,-5.7149 -6.6289,0 -12,2.559 -12,5.7149 0,3.1558 5.3711,5.7148 12,5.7148 6.6289,0 12,-2.559 12,-5.7148" /><path
   inkscape:connector-curvature="0"
   id="path138"
   style="fill:none;stroke:#000000;stroke-width:0.80000001;stroke-linecap:butt;stroke-linejoin:miter;stroke-miterlimit:4;stroke-dasharray:none;stroke-opacity:1"
   d="m 79.2461,69.4094 c 0,-3.1563 -5.3711,-5.7153 -12,-5.7153 -6.6289,0 -12,2.559 -12,5.7153 0,3.1558 5.3711,5.7148 12,5.7148 6.6289,0 12,-2.559 12,-5.7148 z" /><path
   inkscape:connector-curvature="0"
   id="path140"
   style="fill:#0000ff;fill-opacity:1;fill-rule:evenodd;stroke:none;stroke-width:0.1"
   d="m 24.391,73.409 c 0,-3.1559 -5.375,-5.7149 -12,-5.7149 -6.62889,0 -11.999984,2.559 -11.999984,5.7149 0,3.1558 5.371094,5.7148 11.999984,5.7148 6.625,0 12,-2.559 12,-5.7148" /><path
   inkscape:connector-curvature="0"
   id="path142"
   style="fill:none;stroke:#000000;stroke-width:0.80000001;stroke-linecap:butt;stroke-linejoin:miter;stroke-miterlimit:4;stroke-dasharray:none;stroke-opacity:1"
   d="m 24.391,73.4094 c 0,-3.1563 -5.375,-5.7153 -12,-5.7153 -6.62889,0 -11.999984,2.559 -11.999984,5.7153 0,3.1558 5.371094,5.7148 11.999984,5.7148 6.625,0 12,-2.559 12,-5.7148 z" /><path
   inkscape:connector-curvature="0"
   id="path144"
   style="fill:#0000ff;fill-opacity:1;fill-rule:evenodd;stroke:none;stroke-width:0.1"
   d="m 70.6762,30.5539 c 0,-3.157 -5.375,-5.7148 -12,-5.7148 -6.6293,0 -12,2.5578 -12,5.7148 0,3.1563 5.3707,5.7141 12,5.7141 6.625,0 12,-2.5578 12,-5.7141" /><path
   inkscape:connector-curvature="0"
   id="path146"
   style="fill:none;stroke:#000000;stroke-width:0.80000001;stroke-linecap:butt;stroke-linejoin:miter;stroke-miterlimit:4;stroke-dasharray:none;stroke-opacity:1"
   d="m 70.6762,30.5531 c 0,-3.1558 -5.375,-5.7136 -12,-5.7136 -6.6293,0 -12,2.5578 -12,5.7136 0,3.1571 5.3707,5.7153 12,5.7153 6.625,0 12,-2.5582 12,-5.7153 z" /><path
   inkscape:connector-curvature="0"
   id="path148"
   style="fill:#0000ff;fill-opacity:1;fill-rule:evenodd;stroke:none;stroke-width:0.1"
   d="m 70.6762,30.5539 c 0,-3.157 -5.375,-5.7148 -12,-5.7148 -6.6293,0 -12,2.5578 -12,5.7148 0,3.1563 5.3707,5.7141 12,5.7141 6.625,0 12,-2.5578 12,-5.7141" /><path
   inkscape:connector-curvature="0"
   id="path150"
   style="fill:none;stroke:#000000;stroke-width:0.80000001;stroke-linecap:butt;stroke-linejoin:miter;stroke-miterlimit:4;stroke-dasharray:none;stroke-opacity:1"
   d="m 70.6762,30.5531 c 0,-3.1558 -5.375,-5.7136 -12,-5.7136 -6.6293,0 -12,2.5578 -12,5.7136 0,3.1571 5.3707,5.7153 12,5.7153 6.625,0 12,-2.5582 12,-5.7153 z" /><path
   inkscape:connector-curvature="0"
   id="path152"
   style="fill:#0000ff;fill-opacity:1;fill-rule:evenodd;stroke:none;stroke-width:0.1"
   d="m 186.676,55.1238 c 0,-3.1558 -5.375,-5.7148 -12,-5.7148 -6.629,0 -12,2.559 -12,5.7148 0,3.1563 5.371,5.7153 12,5.7153 6.625,0 12,-2.559 12,-5.7153" /><path
   inkscape:connector-curvature="0"
   id="path154"
   style="fill:none;stroke:#000000;stroke-width:0.80000001;stroke-linecap:butt;stroke-linejoin:miter;stroke-miterlimit:4;stroke-dasharray:none;stroke-opacity:1"
   d="m 186.676,55.1242 c 0,-3.157 -5.375,-5.7148 -12,-5.7148 -6.629,0 -12,2.5578 -12,5.7148 0,3.1563 5.371,5.7153 12,5.7153 6.625,0 12,-2.559 12,-5.7153 z" /><path
   inkscape:connector-curvature="0"
   id="path156"
   style="fill:#0000ff;fill-opacity:1;fill-rule:evenodd;stroke:none;stroke-width:0.1"
   d="m 157.582,112.503 c 0,-3.156 -5.371,-5.715 -12,-5.715 -6.625,0 -12,2.559 -12,5.715 0,3.156 5.375,5.711 12,5.711 6.629,0 12,-2.555 12,-5.711" /><path
   inkscape:connector-curvature="0"
   id="path158"
   style="fill:none;stroke:#000000;stroke-width:0.80000001;stroke-linecap:butt;stroke-linejoin:miter;stroke-miterlimit:4;stroke-dasharray:none;stroke-opacity:1"
   d="m 157.582,112.503 c 0,-3.157 -5.371,-5.715 -12,-5.715 -6.625,0 -12,2.558 -12,5.715 0,3.156 5.375,5.71 12,5.71 6.629,0 12,-2.554 12,-5.71 z" /><path
   inkscape:connector-curvature="0"
   id="path160"
   style="fill:#0000ff;fill-opacity:1;fill-rule:evenodd;stroke:none;stroke-width:0.1"
   d="m 229.504,85.0262 c 0,-3.1563 -5.371,-5.7153 -12,-5.7153 -6.625,0 -12,2.559 -12,5.7153 0,3.1566 5.375,5.7148 12,5.7148 6.629,0 12,-2.5582 12,-5.7148" /><path
   inkscape:connector-curvature="0"
   id="path162"
   style="fill:none;stroke:#000000;stroke-width:0.80000001;stroke-linecap:butt;stroke-linejoin:miter;stroke-miterlimit:4;stroke-dasharray:none;stroke-opacity:1"
   d="m 229.504,85.0262 c 0,-3.1559 -5.371,-5.7149 -12,-5.7149 -6.625,0 -12,2.559 -12,5.7149 0,3.1562 5.375,5.7152 12,5.7152 6.629,0 12,-2.559 12,-5.7152 z" /><path
   inkscape:connector-curvature="0"
   id="path164"
   style="fill:#0000ff;fill-opacity:1;fill-rule:evenodd;stroke:none;stroke-width:0.1"
   d="m 298.195,93.1039 c 0,-3.1519 -5.371,-5.7109 -12,-5.7109 -6.625,0 -12,2.559 -12,5.7109 0,3.157 5.375,5.7152 12,5.7152 6.629,0 12,-2.5582 12,-5.7152" /><path
   inkscape:connector-curvature="0"
   id="path166"
   style="fill:none;stroke:#000000;stroke-width:0.80000001;stroke-linecap:butt;stroke-linejoin:miter;stroke-miterlimit:4;stroke-dasharray:none;stroke-opacity:1"
   d="m 298.195,93.1043 c 0,-3.152 -5.371,-5.7109 -12,-5.7109 -6.625,0 -12,2.5589 -12,5.7109 0,3.1559 5.375,5.7148 12,5.7148 6.629,0 12,-2.5589 12,-5.7148 z" /><path
   inkscape:connector-curvature="0"
   id="path168"
   style="fill:#0000ff;fill-opacity:1;fill-rule:evenodd;stroke:none;stroke-width:0.1"
   d="m 274.762,65.632 c 0,-3.157 -5.375,-5.7148 -12,-5.7148 -6.629,0 -12,2.5578 -12,5.7148 0,3.1559 5.371,5.711 12,5.711 6.625,0 12,-2.5551 12,-5.711" /><path
   inkscape:connector-curvature="0"
   id="path170"
   style="fill:none;stroke:#000000;stroke-width:0.80000001;stroke-linecap:butt;stroke-linejoin:miter;stroke-miterlimit:4;stroke-dasharray:none;stroke-opacity:1"
   d="m 274.762,65.6313 c 0,-3.1559 -5.375,-5.7141 -12,-5.7141 -6.629,0 -12,2.5582 -12,5.7141 0,3.157 5.371,5.7109 12,5.7109 6.625,0 12,-2.5539 12,-5.7109 z" /><path
   inkscape:connector-curvature="0"
   id="path172"
   style="fill:#00ff00;fill-opacity:1;fill-rule:evenodd;stroke:none;stroke-width:0.1"
   d="m 298.195,38.9641 c 0,-3.1563 -5.371,-5.7153 -12,-5.7153 -6.625,0 -12,2.559 -12,5.7153 0,3.1519 5.375,5.7109 12,5.7109 6.629,0 12,-2.559 12,-5.7109" /><path
   inkscape:connector-curvature="0"
   id="path174"
   style="fill:none;stroke:#000000;stroke-width:0.80000001;stroke-linecap:butt;stroke-linejoin:miter;stroke-miterlimit:4;stroke-dasharray:none;stroke-opacity:1"
   d="m 298.195,38.9633 c 0,-3.1559 -5.371,-5.7141 -12,-5.7141 -6.625,0 -12,2.5582 -12,5.7141 0,3.1531 5.375,5.7109 12,5.7109 6.629,0 12,-2.5578 12,-5.7109 z" /><path
   inkscape:connector-curvature="0"
   id="path176"
   style="fill:#0000ff;fill-opacity:1;fill-rule:evenodd;stroke:none;stroke-width:0.1"
   d="m 270.719,15.5262 c 0,-3.1563 -5.371,-5.71526 -12,-5.71526 -6.625,0 -12,2.55896 -12,5.71526 0,3.1566 5.375,5.7148 12,5.7148 6.629,0 12,-2.5582 12,-5.7148" /><path
   inkscape:connector-curvature="0"
   id="path178"
   style="fill:none;stroke:#000000;stroke-width:0.80000001;stroke-linecap:butt;stroke-linejoin:miter;stroke-miterlimit:4;stroke-dasharray:none;stroke-opacity:1"
   d="m 270.719,15.5262 c 0,-3.1559 -5.371,-5.71487 -12,-5.71487 -6.625,0 -12,2.55897 -12,5.71487 0,3.1562 5.375,5.7152 12,5.7152 6.629,0 12,-2.559 12,-5.7152 z" /><path
   inkscape:connector-curvature="0"
   id="path180"
   style="fill:#0000ff;fill-opacity:1;fill-rule:evenodd;stroke:none;stroke-width:0.1"
   d="m 344.258,63.2059 c 0,-3.1559 -5.371,-5.7149 -12,-5.7149 -6.625,0 -12,2.559 -12,5.7149 0,3.1562 5.375,5.7152 12,5.7152 6.629,0 12,-2.559 12,-5.7152" /><path
   inkscape:connector-curvature="0"
   id="path182"
   style="fill:none;stroke:#000000;stroke-width:0.80000001;stroke-linecap:butt;stroke-linejoin:miter;stroke-miterlimit:4;stroke-dasharray:none;stroke-opacity:1"
   d="m 344.258,63.2063 c 0,-3.1571 -5.371,-5.7149 -12,-5.7149 -6.625,0 -12,2.5578 -12,5.7149 0,3.1558 5.375,5.7148 12,5.7148 6.629,0 12,-2.559 12,-5.7148 z" /><path
   inkscape:connector-curvature="0"
   id="path184"
   style="fill:#0000ff;fill-opacity:1;fill-rule:evenodd;stroke:none;stroke-width:0.1"
   d="m 365.27,90.6828 c 0,-3.1566 -5.372,-5.7148 -12,-5.7148 -6.629,0 -12,2.5582 -12,5.7148 0,3.1563 5.371,5.7141 12,5.7141 6.628,0 12,-2.5578 12,-5.7141" /><path
   inkscape:connector-curvature="0"
   id="path186"
   style="fill:none;stroke:#000000;stroke-width:0.80000001;stroke-linecap:butt;stroke-linejoin:miter;stroke-miterlimit:4;stroke-dasharray:none;stroke-opacity:1"
   d="m 365.27,90.6824 c 0,-3.1562 -5.372,-5.7152 -12,-5.7152 -6.629,0 -12,2.559 -12,5.7152 0,3.1571 5.371,5.7149 12,5.7149 6.628,0 12,-2.5578 12,-5.7149 z" /><path
   inkscape:connector-curvature="0"
   id="path188"
   style="fill:#0000ff;fill-opacity:1;fill-rule:evenodd;stroke:none;stroke-width:0.1"
   d="m 395.98,43.8109 c 0,-3.1558 -5.375,-5.714 -12,-5.714 -6.628,0 -12,2.5582 -12,5.714 0,3.1571 5.372,5.7153 12,5.7153 6.625,0 12,-2.5582 12,-5.7153" /><path
   inkscape:connector-curvature="0"
   id="path190"
   style="fill:none;stroke:#000000;stroke-width:0.80000001;stroke-linecap:butt;stroke-linejoin:miter;stroke-miterlimit:4;stroke-dasharray:none;stroke-opacity:1"
   d="m 395.98,43.8113 c 0,-3.1558 -5.375,-5.7148 -12,-5.7148 -6.628,0 -12,2.559 -12,5.7148 0,3.1559 5.372,5.7149 12,5.7149 6.625,0 12,-2.559 12,-5.7149 z" /><path
   inkscape:connector-curvature="0"
   id="path192"
   style="fill:#0000ff;fill-opacity:1;fill-rule:evenodd;stroke:none;stroke-width:0.1"
   d="m 349.914,28.4559 c 0,-3.1559 -5.371,-5.7149 -12,-5.7149 -6.625,0 -12,2.559 -12,5.7149 0,3.1562 5.375,5.7152 12,5.7152 6.629,0 12,-2.559 12,-5.7152" /><path
   inkscape:connector-curvature="0"
   id="path194"
   style="fill:none;stroke:#000000;stroke-width:0.80000001;stroke-linecap:butt;stroke-linejoin:miter;stroke-miterlimit:4;stroke-dasharray:none;stroke-opacity:1"
   d="m 349.914,28.4563 c 0,-3.1571 -5.371,-5.7149 -12,-5.7149 -6.625,0 -12,2.5578 -12,5.7149 0,3.1558 5.375,5.7148 12,5.7148 6.629,0 12,-2.559 12,-5.7148 z" /><path
   inkscape:connector-curvature="0"
   id="path196"
   style="fill:#0000ff;fill-opacity:1;fill-rule:evenodd;stroke:none;stroke-width:0.1"
   d="m 411.059,85.0262 c 0,-3.1524 -5.371,-5.7114 -12,-5.7114 -6.629,0 -12,2.559 -12,5.7114 0,3.1566 5.371,5.7148 12,5.7148 6.629,0 12,-2.5582 12,-5.7148" /><path
   inkscape:connector-curvature="0"
   id="path198"
   style="fill:none;stroke:#000000;stroke-width:0.80000001;stroke-linecap:butt;stroke-linejoin:miter;stroke-miterlimit:4;stroke-dasharray:none;stroke-opacity:1"
   d="m 411.059,85.0262 c 0,-3.152 -5.371,-5.711 -12,-5.711 -6.629,0 -12,2.559 -12,5.711 0,3.1562 5.371,5.7152 12,5.7152 6.629,0 12,-2.559 12,-5.7152 z" /><path
   inkscape:connector-curvature="0"
   id="path200"
   style="fill:#0000ff;fill-opacity:1;fill-rule:evenodd;stroke:none;stroke-width:0.1"
   d="m 27.1988,125.433 c 0,-3.157 -5.3707,-5.711 -12,-5.711 -6.62497,0 -11.99997,2.554 -11.99997,5.711 0,3.156 5.375,5.714 11.99997,5.714 6.6293,0 12,-2.558 12,-5.714" /><path
   inkscape:connector-curvature="0"
   id="path202"
   style="fill:none;stroke:#000000;stroke-width:0.80000001;stroke-linecap:butt;stroke-linejoin:miter;stroke-miterlimit:4;stroke-dasharray:none;stroke-opacity:1"
   d="m 27.1988,125.432 c 0,-3.156 -5.3707,-5.711 -12,-5.711 -6.62497,0 -11.99997,2.555 -11.99997,5.711 0,3.157 5.375,5.715 11.99997,5.715 6.6293,0 12,-2.558 12,-5.715 z" /><path
   inkscape:connector-curvature="0"
   id="path204"
   style="fill:#0000ff;fill-opacity:1;fill-rule:evenodd;stroke:none;stroke-width:0.1"
   d="m 53.059,188.468 c 0,-3.157 -5.3711,-5.715 -12,-5.715 -6.625,0 -12,2.558 -12,5.715 0,3.156 5.375,5.715 12,5.715 6.6289,0 12,-2.559 12,-5.715" /><path
   inkscape:connector-curvature="0"
   id="path206"
   style="fill:none;stroke:#000000;stroke-width:0.80000001;stroke-linecap:butt;stroke-linejoin:miter;stroke-miterlimit:4;stroke-dasharray:none;stroke-opacity:1"
   d="m 53.059,188.467 c 0,-3.156 -5.3711,-5.714 -12,-5.714 -6.625,0 -12,2.558 -12,5.714 0,3.157 5.375,5.715 12,5.715 6.6289,0 12,-2.558 12,-5.715 z" /><path
   inkscape:connector-curvature="0"
   id="path208"
   style="fill:#0000ff;fill-opacity:1;fill-rule:evenodd;stroke:none;stroke-width:0.1"
   d="m 85.3871,213.518 c 0,-3.156 -5.375,-5.714 -12,-5.714 -6.6293,0 -12,2.558 -12,5.714 0,3.157 5.3707,5.715 12,5.715 6.625,0 12,-2.558 12,-5.715" /><path
   inkscape:connector-curvature="0"
   id="path210"
   style="fill:none;stroke:#000000;stroke-width:0.80000001;stroke-linecap:butt;stroke-linejoin:miter;stroke-miterlimit:4;stroke-dasharray:none;stroke-opacity:1"
   d="m 85.3871,213.518 c 0,-3.156 -5.375,-5.715 -12,-5.715 -6.6293,0 -12,2.559 -12,5.715 0,3.156 5.3707,5.715 12,5.715 6.625,0 12,-2.559 12,-5.715 z" /><path
   inkscape:connector-curvature="0"
   id="path212"
   style="fill:#0000ff;fill-opacity:1;fill-rule:evenodd;stroke:none;stroke-width:0.1"
   d="m 369.035,205.436 c 0,-3.152 -5.371,-5.711 -12,-5.711 -6.625,0 -12,2.559 -12,5.711 0,3.157 5.375,5.715 12,5.715 6.629,0 12,-2.558 12,-5.715" /><path
   inkscape:connector-curvature="0"
   id="path214"
   style="fill:none;stroke:#000000;stroke-width:0.80000001;stroke-linecap:butt;stroke-linejoin:miter;stroke-miterlimit:4;stroke-dasharray:none;stroke-opacity:1"
   d="m 369.035,205.436 c 0,-3.152 -5.371,-5.711 -12,-5.711 -6.625,0 -12,2.559 -12,5.711 0,3.156 5.375,5.715 12,5.715 6.629,0 12,-2.559 12,-5.715 z" /><path
   inkscape:connector-curvature="0"
   id="path216"
   style="fill:#0000ff;fill-opacity:1;fill-rule:evenodd;stroke:none;stroke-width:0.1"
   d="m 409.441,194.124 c 0,-3.156 -5.371,-5.715 -12,-5.715 -6.625,0 -12,2.559 -12,5.715 0,3.156 5.375,5.715 12,5.715 6.629,0 12,-2.559 12,-5.715" /><path
   inkscape:connector-curvature="0"
   id="path218"
   style="fill:none;stroke:#000000;stroke-width:0.80000001;stroke-linecap:butt;stroke-linejoin:miter;stroke-miterlimit:4;stroke-dasharray:none;stroke-opacity:1"
   d="m 409.441,194.124 c 0,-3.157 -5.371,-5.715 -12,-5.715 -6.625,0 -12,2.558 -12,5.715 0,3.156 5.375,5.715 12,5.715 6.629,0 12,-2.559 12,-5.715 z" />

<path
   inkscape:connector-curvature="0"
   id="path244"
   style="fill:none;stroke:#000000;stroke-width:2.4000001;stroke-linecap:butt;stroke-linejoin:miter;stroke-miterlimit:4;stroke-dasharray:none;stroke-opacity:1"
   d="M 211.301,120.999 285.648,39.3781" /><path
   inkscape:connector-curvature="0"
   id="path246"
   style="fill:#000000;fill-opacity:1;fill-rule:evenodd;stroke:none;stroke-width:0.1"
   d="m 279.184,46.475 -6.782,0.3172 14.864,-9.1883 -7.766,15.6531 z" /><path
   inkscape:connector-curvature="0"
   id="path248"
   style="fill:none;stroke:#000000;stroke-width:1.20000005;stroke-linecap:butt;stroke-linejoin:miter;stroke-miterlimit:4;stroke-dasharray:none;stroke-opacity:1"
   d="m 279.184,46.4746 -6.781,0.3172 14.862,-9.1871 -7.765,15.6519 z" /><path
   inkscape:connector-curvature="0"
   id="path256"
   style="fill:none;stroke:#000000;stroke-width:2;stroke-linecap:butt;stroke-linejoin:miter;stroke-miterlimit:4;stroke-dasharray:none;stroke-opacity:1"
   d="M 211.301,264.292 22.207,284.155" /><path
   inkscape:connector-curvature="0"
   id="path258"
   style="fill:#000000;fill-opacity:1;fill-rule:evenodd;stroke:none;stroke-width:0.1"
   d="m 203.344,265.128 -4.395,-3.563 14.34,2.516 -13.504,5.441 z" /><path
   inkscape:connector-curvature="0"
   id="path260"
   style="fill:none;stroke:#000000;stroke-width:1;stroke-linecap:butt;stroke-linejoin:miter;stroke-miterlimit:4;stroke-dasharray:none;stroke-opacity:1"
   d="m 203.344,265.128 -4.395,-3.562 14.34,2.515 -13.503,5.442 z" /><path
   inkscape:connector-curvature="0"
   id="path262"
   style="fill:#000000;fill-opacity:1;fill-rule:evenodd;stroke:none;stroke-width:0.1"
   d="m 30.1602,283.319 4.3988,3.559 -14.3442,-2.516 13.5082,-5.441 z" /><path
   inkscape:connector-curvature="0"
   id="path264"
   style="fill:none;stroke:#000000;stroke-width:1;stroke-linecap:butt;stroke-linejoin:miter;stroke-miterlimit:4;stroke-dasharray:none;stroke-opacity:1"
   d="m 30.1598,283.319 4.3988,3.559 -14.3438,-2.515 13.5079,-5.442 z" /><path
   inkscape:connector-curvature="0"
   id="path280"
   style="fill:none;stroke:#000000;stroke-width:0.80000001;stroke-linecap:butt;stroke-linejoin:miter;stroke-miterlimit:4;stroke-dasharray:0.8, 1.6;stroke-dashoffset:0;stroke-opacity:1"
   d="M 19.609,140.217 V 297.932" />
<text
   xml:space="preserve"
   style="font-style:normal;font-variant:normal;font-weight:normal;font-stretch:normal;font-size:30px;line-height:1.25;font-family:'Linux Libertine';-inkscape-font-specification:'Linux Libertine';letter-spacing:0px;word-spacing:0px;fill:#000000;fill-opacity:1;stroke:none;stroke-width:0.75"
   x="266.48306"
   y="-347.79663"
   id="text948"
   transform="scale(1,-1)"><tspan
     sodipodi:role="line"
     id="tspan946"
     x="266.48306"
     y="-347.79663"
     style="stroke-width:0.75">W(|<tspan
   style="font-style:italic;font-variant:normal;font-weight:bold;font-stretch:normal;font-family:'Linux Libertine';-inkscape-font-specification:'Linux Libertine Bold Italic'"
   id="tspan952">r</tspan><tspan
   style="font-style:italic;font-variant:normal;font-weight:normal;font-stretch:normal;font-size:64.99999762%;font-family:'Linux Libertine';-inkscape-font-specification:'Linux Libertine Italic';baseline-shift:sub"
   id="tspan950">i</tspan>-<tspan
   style="font-style:italic;font-variant:normal;font-weight:bold;font-stretch:normal;font-family:'Linux Libertine';-inkscape-font-specification:'Linux Libertine Bold Italic'"
   id="tspan1019">r</tspan><tspan
   style="font-style:italic;font-variant:normal;font-weight:normal;font-stretch:normal;font-size:64.99999762%;font-family:'Linux Libertine';-inkscape-font-specification:'Linux Libertine Italic';baseline-shift:sub"
   id="tspan1015">j</tspan>|, <tspan
   style="font-style:italic;font-variant:normal;font-weight:normal;font-stretch:normal;font-family:'Linux Libertine';-inkscape-font-specification:'Linux Libertine Italic'"
   id="tspan956">h</tspan>)</tspan></text>
<text
   xml:space="preserve"
   style="font-style:normal;font-variant:normal;font-weight:normal;font-stretch:normal;font-size:30px;line-height:1.25;font-family:'Linux Libertine';-inkscape-font-specification:'Linux Libertine';letter-spacing:0px;word-spacing:0px;fill:#000000;fill-opacity:1;stroke:none;stroke-width:0.75"
   x="79.703392"
   y="-285.80508"
   id="text960"
   transform="scale(1,-1)"><tspan
     sodipodi:role="line"
     id="tspan958"
     x="79.703392"
     y="-285.80508"
     style="stroke-width:0.75"><tspan
   style="font-style:italic;font-variant:normal;font-weight:normal;font-stretch:normal;font-family:'Linux Libertine';-inkscape-font-specification:'Linux Libertine Italic'"
   id="tspan964">s</tspan>·<tspan
   style="font-style:italic;font-variant:normal;font-weight:normal;font-stretch:normal;font-family:'Linux Libertine';-inkscape-font-specification:'Linux Libertine Italic'"
   id="tspan962">h</tspan></tspan></text>
<text
   xml:space="preserve"
   style="font-style:normal;font-variant:normal;font-weight:normal;font-stretch:normal;font-size:30px;line-height:1.25;font-family:'Linux Libertine';-inkscape-font-specification:'Linux Libertine';letter-spacing:0px;word-spacing:0px;fill:#000000;fill-opacity:1;stroke:none;stroke-width:0.75"
   x="215.76273"
   y="-128.00848"
   id="text995"
   transform="scale(1,-1)"><tspan
     sodipodi:role="line"
     id="tspan993"
     x="215.76273"
     y="-128.00848"
     style="font-style:italic;font-variant:normal;font-weight:normal;font-stretch:normal;font-family:'Linux Libertine';-inkscape-font-specification:'Linux Libertine Italic';stroke-width:0.75">i</tspan></text>
<text
   xml:space="preserve"
   style="font-style:normal;font-variant:normal;font-weight:normal;font-stretch:normal;font-size:30px;line-height:1.25;font-family:'Linux Libertine';-inkscape-font-specification:'Linux Libertine';letter-spacing:0px;word-spacing:0px;fill:#000000;fill-opacity:1;stroke:none;stroke-width:0.75"
   x="303.90051"
   y="-40.789291"
   id="text995-7"
   transform="scale(1,-1)"><tspan
     sodipodi:role="line"
     id="tspan993-4"
     x="303.90051"
     y="-40.789291"
     style="font-style:italic;font-variant:normal;font-weight:normal;font-stretch:normal;font-family:'Linux Libertine';-inkscape-font-specification:'Linux Libertine Italic';stroke-width:0.75">j</tspan></text>
</g></svg>